<?xml version="1.0" encoding="utf-8"?>
<!-- Generator: Adobe Illustrator 19.0.0, SVG Export Plug-In . SVG Version: 6.00 Build 0)  -->
<svg version="1.1" id="Layer_1" xmlns="http://www.w3.org/2000/svg" xmlns:xlink="http://www.w3.org/1999/xlink" x="0px" y="0px"
	 viewBox="314 169 333 225" style="enable-background:new 314 169 333 225;" xml:space="preserve">
<style type="text/css">
	.st0{fill:url(#XMLID_22_);}
	.st1{fill:url(#XMLID_23_);}
	.st2{fill:url(#XMLID_24_);}
	.st3{fill:url(#XMLID_25_);}
	.st4{fill:url(#XMLID_26_);}
	.st5{fill:url(#XMLID_27_);}
	.st6{fill:url(#XMLID_28_);}
	.st7{fill:url(#XMLID_29_);}
	.st8{fill:url(#XMLID_30_);}
	.st9{fill:url(#XMLID_31_);}
	.st10{fill:url(#XMLID_32_);}
	.st11{fill:url(#XMLID_33_);}
	.st12{fill:url(#XMLID_34_);}
	.st13{fill:url(#XMLID_35_);stroke:#000000;stroke-miterlimit:10;}
	.st14{fill:url(#XMLID_36_);}
	.st15{fill:url(#XMLID_37_);}
	.st16{fill:url(#XMLID_38_);}
	.st17{fill:url(#XMLID_39_);}
	.st18{fill:url(#XMLID_40_);}
	.st19{fill:url(#XMLID_41_);}
</style>
<linearGradient id="XMLID_22_" gradientUnits="userSpaceOnUse" x1="385.1572" y1="270.0029" x2="377.7031" y2="187.1842" gradientTransform="matrix(1 0 0 -1 0 560)">
	<stop  offset="0" style="stop-color:#F4E0EC"/>
	<stop  offset="0.2086" style="stop-color:#E6B6C8"/>
	<stop  offset="0.5773" style="stop-color:#D0718E"/>
	<stop  offset="0.844" style="stop-color:#C14669"/>
	<stop  offset="0.9795" style="stop-color:#BC365B"/>
</linearGradient>
<path id="XMLID_1_" class="st0" d="M331.1,285.9c-3.9,3,0.5,15.2,5.4,28c6.8,18,10.2,27,15.9,33.3c6.3,7,19.4,11.9,45.3,21.4
	c26.1,9.6,32.3,10.1,34.6,7.3c2.3-2.8,0.1-8-2.8-14.8c-5.4-12.7-12.7-21.3-17.5-26.6c-13.3-14.7-22.5-24.7-38-32.6
	c-9.1-4.7-8.1-2.4-25.6-10.3C337.4,286.6,333.5,284.1,331.1,285.9z"/>
<linearGradient id="XMLID_23_" gradientUnits="userSpaceOnUse" x1="348.9824" y1="341.6031" x2="342.2827" y2="267.1659" gradientTransform="matrix(1 0 0 -1 0 560)">
	<stop  offset="0" style="stop-color:#F4E0EC"/>
	<stop  offset="0.2086" style="stop-color:#E6B6C8"/>
	<stop  offset="0.5773" style="stop-color:#D0718E"/>
	<stop  offset="0.844" style="stop-color:#C14669"/>
	<stop  offset="0.9795" style="stop-color:#BC365B"/>
</linearGradient>
<path id="XMLID_2_" class="st1" d="M326,279.3c3.5,3.6,6.3,2.2,17.4,5.4c17.7,5.2,23.8,12.7,26.9,10.1c4.1-3.4-3.7-19.3-8.4-28.8
	c-4.7-9.5-9.6-17.1-14.3-23.4c-5.9-7.9-21.4-29-26.6-26.4c-3.4,1.7,2.1,11.4,2.4,33.8C323.5,266.4,320.7,273.7,326,279.3z"/>
<linearGradient id="XMLID_24_" gradientUnits="userSpaceOnUse" x1="408.0613" y1="353.7518" x2="397.8186" y2="239.9495" gradientTransform="matrix(1 0 0 -1 0 560)">
	<stop  offset="0" style="stop-color:#F4E0EC"/>
	<stop  offset="0.2086" style="stop-color:#E6B6C8"/>
	<stop  offset="0.5773" style="stop-color:#D0718E"/>
	<stop  offset="0.844" style="stop-color:#C14669"/>
	<stop  offset="0.9795" style="stop-color:#BC365B"/>
</linearGradient>
<path id="XMLID_3_" class="st2" d="M388.3,204.5c-4.8-1.4-15,20.1-18.7,28c-5.2,11.1-7.8,16.6-7.7,20.2c0.6,12.8,12.2,18.3,13,35
	c0.1,2-0.2,3.7,0.7,6c2.3,5.9,7.6,5.1,16.2,12.7c4.7,4.1,7,6.2,9.2,9.5c1.6,2.4,2.8,4.9,4.2,4.8c1.5-0.2,2.2-3.4,2.6-4.6
	c2.8-9.7,11.3-17.6,15.5-21.5c7.9-7.4,16-13,16-13c1.4-1,3.4-2.3,4.3-4.8c1.2-3.7-1.7-6.9-3.8-11.8c-4-9-5.9-13.5-8.8-17.7
	c-5.2-7.4-10.9-11.6-15.5-14.8c-12.7-9.1-19-8.1-23.2-15.7C388.6,210.3,390.7,205.2,388.3,204.5z"/>
<linearGradient id="XMLID_25_" gradientUnits="userSpaceOnUse" x1="471.7527" y1="301.2188" x2="460.7091" y2="178.5189" gradientTransform="matrix(1 0 0 -1 0 560)">
	<stop  offset="0" style="stop-color:#F4E0EC"/>
	<stop  offset="0.2086" style="stop-color:#E6B6C8"/>
	<stop  offset="0.5773" style="stop-color:#D0718E"/>
	<stop  offset="0.844" style="stop-color:#C14669"/>
	<stop  offset="0.9795" style="stop-color:#BC365B"/>
</linearGradient>
<path id="XMLID_5_" class="st3" d="M455.8,380.8c-0.4,0.9-4.3-1.1-13-2.3c-3.6-0.5-5.8-0.5-6.5-2c-0.8-1.5,0.8-3,0.9-6.8
	c0.1-1.6-0.2-2.7-0.5-4.5c-1.7-8.6-5.4-15.4-5.4-15.4c-1.3-2.3-3.7-6.7-8.3-11.3c0,0-11.7-11.7-14.1-15c-0.1-0.1-0.2-0.3-0.2-0.3
	c-0.1-0.1-0.1-0.3-0.1-0.4c-0.5-1.9,1.7-3,4-7c0.3-0.5,1.2-2.2,2.1-3.7c0.1-0.2,0.4-0.6,0.7-1.1c0.2-0.4,0.5-0.8,1.1-1.7
	c2.7-3.8,6.8-9.4,13.3-15.7c8.4-8,11.6-9,18.4-13.8c4.5-3.1,3.7-3.1,8.7-6.7c7.3-5.3,6.9-4,11.5-7.7c0.8-0.7,2-1.5,3.3-2.8
	c3-2.7,3.3-3.7,4.2-3.6c1,0.2,0.9,1.5,2.7,4c0.8,1.1,1.5,1.8,2.5,2.8c2.4,2.4,4.6,3.8,5.3,4.3c12.6,9.7,41,25.6,38.8,33.3
	c-0.6,2.2-2.9,0.6-11.4,5.8c0,0-13.4,7.7-15.5,8.5l0,0c-24.9,11.3-31,8.7-41.3,17.5c-4,3.4-11.5,10-13,20.3
	c-0.4,2.4-1.6,10.1,2.7,16.7C450.4,377.9,456.2,379.7,455.8,380.8z"/>
<linearGradient id="XMLID_26_" gradientUnits="userSpaceOnUse" x1="439.4322" y1="375.011" x2="431.6983" y2="289.0841" gradientTransform="matrix(1 0 0 -1 0 560)">
	<stop  offset="0" style="stop-color:#F4E0EC"/>
	<stop  offset="0.2086" style="stop-color:#E6B6C8"/>
	<stop  offset="0.5773" style="stop-color:#D0718E"/>
	<stop  offset="0.844" style="stop-color:#C14669"/>
	<stop  offset="0.9795" style="stop-color:#BC365B"/>
</linearGradient>
<path id="XMLID_6_" class="st4" d="M449.3,272.5c1,0.1,2-0.4,9.8-7.5c4.2-3.8,6.2-5.7,6.8-6.5c3.9-6,2.6-13.4,1.8-17.8
	c-0.5-2.5-1.9-9.1-7.8-17.9c-9.7-14.5-16.9-12.1-23.8-25.5c-3.6-6.9-5-9.4-5-9.4c-1.1-2.4-1.7-3.9-2.7-3.9c-0.7,0-1.7,1.1-3.6,3.5
	c-1.8,2.2-2.7,3.3-2.7,3.3c-3.7,5.1-5.5,6.1-9.5,11.8c-4.2,6-4.1,7.1-7.2,10.2c-2.6,2.7-3.7,2.9-3.8,4.2c-0.3,3.9,10.4,5,20.3,12.2
	c13.3,9.5,19.6,25.3,20.5,27.7C445.4,265.2,445.8,272,449.3,272.5z"/>
<linearGradient id="XMLID_27_" gradientUnits="userSpaceOnUse" x1="499.3035" y1="258.7599" x2="491.594" y2="173.1043" gradientTransform="matrix(1 0 0 -1 0 560)">
	<stop  offset="0" style="stop-color:#F4E0EC"/>
	<stop  offset="0.2086" style="stop-color:#E6B6C8"/>
	<stop  offset="0.5773" style="stop-color:#D0718E"/>
	<stop  offset="0.844" style="stop-color:#C14669"/>
	<stop  offset="0.9795" style="stop-color:#BC365B"/>
</linearGradient>
<path id="XMLID_7_" class="st5" d="M533.3,304.3c-1.6-0.1-2.3,2.3-5.3,4.8c-2.6,2.2-4.9,2.2-8.8,4.2c-5.3,2.6-5.5,2.5-17.3,8
	c-9.5,4.4-8.5,4.1-10.7,5c-15.3,6.6-18.8,4-26,8.3c-7.5,4.5-15.5,14.4-14.5,25.3c1.1,11.9,12.5,19.4,15,21c3.5,2.3,6.6,3.4,7.3,3.7
	c6.2,2.1,13.9,2.4,42.3-8.5c15.8-6.1,17.5-7.8,18.8-9.3c3.9-4.8,4.4-13.2,5.3-30.2l0,0c0-9.7,0-16.4-1.7-23.2
	C537,310.1,535.7,304.5,533.3,304.3z"/>
<linearGradient id="XMLID_28_" gradientUnits="userSpaceOnUse" x1="477.4637" y1="385.6663" x2="469.5695" y2="297.9581" gradientTransform="matrix(1 0 0 -1 0 560)">
	<stop  offset="0" style="stop-color:#F4E0EC"/>
	<stop  offset="0.2086" style="stop-color:#E6B6C8"/>
	<stop  offset="0.5773" style="stop-color:#D0718E"/>
	<stop  offset="0.844" style="stop-color:#C14669"/>
	<stop  offset="0.9795" style="stop-color:#BC365B"/>
</linearGradient>
<path id="XMLID_8_" class="st6" d="M447.2,203.2c0.1,3.6,3.7,3.2,12.2,13.2c4,4.8,7.5,8.8,9.8,15.2c1,2.6,3.5,9.5,2.7,18.2
	c-0.5,4.7-1.8,9.2-0.7,9.7c1.1,0.5,2.9-3.7,5.5-3.5c3.3,0.3,4.5,7.5,5.8,7.3c1.7-0.3-0.8-12.4,3.5-25.7c1.1-3.3,2.3-5.9,3.2-7.5
	c4.3-7.5,8.2-11.2,8.2-11.2c1.2-0.8,4.2-4.4,4.2-4.9c0-1.1-1.9-1.9-2.3-2.1c-4.4-2-8.8-13-10.6-16.9c-6-13.1-18.3-22.8-20.7-21.3
	c-0.8,0.5-0.1,2.1-0.2,4.5C467.4,190.3,446.9,194.6,447.2,203.2z"/>
<linearGradient id="XMLID_29_" gradientUnits="userSpaceOnUse" x1="519.5851" y1="370.7974" x2="511.2388" y2="278.0654" gradientTransform="matrix(1 0 0 -1 0 560)">
	<stop  offset="0" style="stop-color:#F4E0EC"/>
	<stop  offset="0.2086" style="stop-color:#E6B6C8"/>
	<stop  offset="0.5773" style="stop-color:#D0718E"/>
	<stop  offset="0.844" style="stop-color:#C14669"/>
	<stop  offset="0.9795" style="stop-color:#BC365B"/>
</linearGradient>
<path id="XMLID_9_" class="st7" d="M508.2,281.5c-1.3,0.7-3-2-10.2-7c-1.4-1-4.5-3.1-8.5-6.3c-2.3-1.9-2.7-2.4-3-2.8
	c-1.6-2.6-0.8-5,0.5-11.8c2-10.1,1.7-12.3,4-17.8c0.7-1.7,1.3-3,2-4.3c3-5.8,7.8-12.7,7.8-12.7c8.2-11.8,12.3-17.8,13.9-23.4
	c0.6-2,1.7-6.4,2.7-6.3c0.7,0.1,0.8,2.1,2.5,5.3c0.6,1.2,1.3,2.1,1.7,2.7c3.5,3.9,6.4,7.1,8.2,9.3c6.8,8.2,12.1,13.4,12.1,13.4
	c1.5,1.4,1.8,1.6,2,2.3c1.3,4.8-10.4,10.4-23.2,23.7c-1.6,1.6-4,4.2-6.2,8.2c-2,3.7-2.9,7-3.8,10.2c-1,3.5-1.8,6.3-2,10.2
	C508.4,279,509.2,280.9,508.2,281.5z"/>
<linearGradient id="XMLID_30_" gradientUnits="userSpaceOnUse" x1="541.2495" y1="344.8598" x2="533.6638" y2="260.5802" gradientTransform="matrix(1 0 0 -1 0 560)">
	<stop  offset="0" style="stop-color:#F4E0EC"/>
	<stop  offset="0.2086" style="stop-color:#E6B6C8"/>
	<stop  offset="0.5773" style="stop-color:#D0718E"/>
	<stop  offset="0.844" style="stop-color:#C14669"/>
	<stop  offset="0.9795" style="stop-color:#BC365B"/>
</linearGradient>
<path id="XMLID_10_" class="st8" d="M565,217.5c-1.9-2.2-18.5,8.5-31.3,20.5c0,0-14.5,13.6-20,29c-1.1,3-1.6,6.3-1.8,7.5
	c-0.7,4.5-1,7,0.3,9.2c0.9,1.4,1.5,1.1,4.7,3.7c1.5,1.2,2.1,1.9,4.8,4.4c7.6,7.4,8.4,7.4,8.8,7.3c1.2-0.6,0.5-3.3,0.8-8.8
	c0,0,0.1-2.9,1.5-10.5c2.3-12.7,9.4-26.9,9.4-26.9C553.8,229.7,566.8,219.5,565,217.5z"/>
<linearGradient id="XMLID_31_" gradientUnits="userSpaceOnUse" x1="581.591" y1="359.1844" x2="570.6179" y2="237.2684" gradientTransform="matrix(1 0 0 -1 0 560)">
	<stop  offset="0" style="stop-color:#F4E0EC"/>
	<stop  offset="0.2086" style="stop-color:#E6B6C8"/>
	<stop  offset="0.5773" style="stop-color:#D0718E"/>
	<stop  offset="0.844" style="stop-color:#C14669"/>
	<stop  offset="0.9795" style="stop-color:#BC365B"/>
</linearGradient>
<path id="XMLID_11_" class="st9" d="M537.2,303.8c0.2,0.4,0.8,1.1,1.4,2.3c0,0,0.6,1.2,1.1,2.4c1.5,3.7,1.5,11.4,2.8,11.7
	c0.6,0.1,0.9-1.7,2.8-4c1.9-2.3,8.7-7.2,11.2-9.3c1.3-1.1,4.7-3.2,11.5-7.2c4-2.4,6.1-3.6,8.7-5c2.1-1.2,4.9-2.7,11.2-5.8
	c12.2-6.1,14.2-7,16.2-7.3c1.6-0.2,2.5-0.6,4.3-1.2c2.5-0.9,2.9-1.3,3.2-1.7c1-1.6-0.3-4.1-0.8-5.2c-0.8-1.7-0.4-1.5-1.7-13.8
	c0,0-2.2-21.7-5.6-30.9c-0.2-0.5-0.2-0.6-0.4-1.1c-5.3-14.3-2.8-20.5-2.8-20.5c1-2.4,2.4-3.9,1.9-4.4c-0.5-0.6-2.7,0.5-5.5,2.1
	c-9.9,5.6-16.5,10.2-16.5,10.2c-2,1.5-6.4,4.6-8,5.8C549,239.6,530.5,293,537.2,303.8z"/>
<linearGradient id="XMLID_32_" gradientUnits="userSpaceOnUse" x1="594.0287" y1="287.0606" x2="584.8468" y2="185.0442" gradientTransform="matrix(1 0 0 -1 0 560)">
	<stop  offset="0" style="stop-color:#F4E0EC"/>
	<stop  offset="0.2086" style="stop-color:#E6B6C8"/>
	<stop  offset="0.5773" style="stop-color:#D0718E"/>
	<stop  offset="0.844" style="stop-color:#C14669"/>
	<stop  offset="0.9795" style="stop-color:#BC365B"/>
</linearGradient>
<path id="XMLID_12_" class="st10" d="M546.3,320.2c-0.6,1.1-1.8,5.4-1.8,5.4l0,0l0,0c0,1.6,0,2.4-0.6,4.9c-0.5,2.2-0.3,5.4-0.3,9
	c0,1.9-0.1,6.9-1.2,12.8c-1.3,7.1-1.9,10.6-3.8,13.7c-0.9,1.4-2,2.8-1.5,3.8c0.8,1.6,5,1.1,7.2,0.8c15.8-2.1,23.7-3.1,24.7-3.4
	c23-7.4,36-24,36-24c14.7-19.5,7-33,24.8-53.3c5.1-5.8,7.9-8.4,7.9-8.4c2.2-1.4,4.3-2,4.2-2.9c-0.2-1.5-6.6-1.9-7.2-2
	c-3.2-0.2-10.1-0.2-32.7,9.3c-1.7,0.7-3.4,1.4-5.6,2.6c-3,1.6-4.6,2.7-9.2,5.6c0,0-0.8,0.5-5.9,3.6
	C573.7,302.5,548.6,315.9,546.3,320.2z"/>
<linearGradient id="XMLID_33_" gradientUnits="userSpaceOnUse" x1="447.3" y1="307.2" x2="447.3" y2="307.2" gradientTransform="matrix(1 0 0 -1 0 560)">
	<stop  offset="0" style="stop-color:#F4E0EC"/>
	<stop  offset="0.2086" style="stop-color:#E6B6C8"/>
	<stop  offset="0.5773" style="stop-color:#D0718E"/>
	<stop  offset="0.844" style="stop-color:#C14669"/>
	<stop  offset="0.9795" style="stop-color:#BC365B"/>
</linearGradient>
<path id="XMLID_13_" class="st11" d="M447.3,252.8"/>
<linearGradient id="XMLID_34_" gradientUnits="userSpaceOnUse" x1="576.7" y1="259.3" x2="576.7" y2="259.3" gradientTransform="matrix(1 0 0 -1 0 560)">
	<stop  offset="0" style="stop-color:#F4E0EC"/>
	<stop  offset="0.2086" style="stop-color:#E6B6C8"/>
	<stop  offset="0.5773" style="stop-color:#D0718E"/>
	<stop  offset="0.844" style="stop-color:#C14669"/>
	<stop  offset="0.9795" style="stop-color:#BC365B"/>
</linearGradient>
<path id="XMLID_14_" class="st12" d="M576.7,300.7"/>
<linearGradient id="XMLID_35_" gradientUnits="userSpaceOnUse" x1="633" y1="283.7" x2="633" y2="283.7" gradientTransform="matrix(1 0 0 -1 0 560)">
	<stop  offset="0" style="stop-color:#F4E0EC"/>
	<stop  offset="0.2086" style="stop-color:#E6B6C8"/>
	<stop  offset="0.5773" style="stop-color:#D0718E"/>
	<stop  offset="0.844" style="stop-color:#C14669"/>
	<stop  offset="0.9795" style="stop-color:#BC365B"/>
</linearGradient>
<path id="XMLID_15_" class="st13" d="M633,276.3"/>
<linearGradient id="XMLID_36_" gradientUnits="userSpaceOnUse" x1="556.7" y1="252.8" x2="556.7" y2="252.8" gradientTransform="matrix(1 0 0 -1 0 560)">
	<stop  offset="0" style="stop-color:#F4E0EC"/>
	<stop  offset="0.2086" style="stop-color:#E6B6C8"/>
	<stop  offset="0.5773" style="stop-color:#D0718E"/>
	<stop  offset="0.844" style="stop-color:#C14669"/>
	<stop  offset="0.9795" style="stop-color:#BC365B"/>
</linearGradient>
<path id="XMLID_16_" class="st14" d="M556.7,307.2"/>
<linearGradient id="XMLID_37_" gradientUnits="userSpaceOnUse" x1="479.2" y1="303.5" x2="479.2" y2="303.5" gradientTransform="matrix(1 0 0 -1 0 560)">
	<stop  offset="0" style="stop-color:#F4E0EC"/>
	<stop  offset="0.2086" style="stop-color:#E6B6C8"/>
	<stop  offset="0.5773" style="stop-color:#D0718E"/>
	<stop  offset="0.844" style="stop-color:#C14669"/>
	<stop  offset="0.9795" style="stop-color:#BC365B"/>
</linearGradient>
<path id="XMLID_17_" class="st15" d="M479.2,256.5"/>
<linearGradient id="XMLID_38_" gradientUnits="userSpaceOnUse" x1="516" y1="365.8" x2="516" y2="365.8" gradientTransform="matrix(1 0 0 -1 0 560)">
	<stop  offset="0" style="stop-color:#F4E0EC"/>
	<stop  offset="0.2086" style="stop-color:#E6B6C8"/>
	<stop  offset="0.5773" style="stop-color:#D0718E"/>
	<stop  offset="0.844" style="stop-color:#C14669"/>
	<stop  offset="0.9795" style="stop-color:#BC365B"/>
</linearGradient>
<path id="XMLID_18_" class="st16" d="M516,194.2"/>
<linearGradient id="XMLID_39_" gradientUnits="userSpaceOnUse" x1="498" y1="345.2" x2="498" y2="345.2" gradientTransform="matrix(1 0 0 -1 0 560)">
	<stop  offset="0" style="stop-color:#F4E0EC"/>
	<stop  offset="0.2086" style="stop-color:#E6B6C8"/>
	<stop  offset="0.5773" style="stop-color:#D0718E"/>
	<stop  offset="0.844" style="stop-color:#C14669"/>
	<stop  offset="0.9795" style="stop-color:#BC365B"/>
</linearGradient>
<path id="XMLID_19_" class="st17" d="M498,214.8"/>
<linearGradient id="XMLID_40_" gradientUnits="userSpaceOnUse" x1="452" y1="205.7" x2="452" y2="205.7" gradientTransform="matrix(1 0 0 -1 0 560)">
	<stop  offset="0" style="stop-color:#F4E0EC"/>
	<stop  offset="0.2086" style="stop-color:#E6B6C8"/>
	<stop  offset="0.5773" style="stop-color:#D0718E"/>
	<stop  offset="0.844" style="stop-color:#C14669"/>
	<stop  offset="0.9795" style="stop-color:#BC365B"/>
</linearGradient>
<path id="XMLID_20_" class="st18" d="M452,354.3"/>
<linearGradient id="XMLID_41_" gradientUnits="userSpaceOnUse" x1="394.5" y1="254" x2="394.5" y2="254" gradientTransform="matrix(1 0 0 -1 0 560)">
	<stop  offset="0" style="stop-color:#F4E0EC"/>
	<stop  offset="0.2086" style="stop-color:#E6B6C8"/>
	<stop  offset="0.5773" style="stop-color:#D0718E"/>
	<stop  offset="0.844" style="stop-color:#C14669"/>
	<stop  offset="0.9795" style="stop-color:#BC365B"/>
</linearGradient>
<path id="XMLID_21_" class="st19" d="M394.5,306"/>
</svg>
